<?xml version="1.0" encoding="UTF-8" standalone="no"?>
<!-- Created with Inkscape (http://www.inkscape.org/) -->
<svg id="svg2" xmlns:rdf="http://www.w3.org/1999/02/22-rdf-syntax-ns#" xmlns="http://www.w3.org/2000/svg" xml:space="preserve" viewBox="0 0 393.89499 403.37" height="403.37" width="393.89" version="1.1" xmlns:cc="http://creativecommons.org/ns#" xmlns:dc="http://purl.org/dc/elements/1.1/"><metadata id="metadata8"><rdf:RDF><cc:Work rdf:about=""><dc:format>image/svg+xml</dc:format><dc:type rdf:resource="http://purl.org/dc/dcmitype/StillImage"/><dc:title/></cc:Work></rdf:RDF></metadata><defs id="defs6"><clipPath id="clipPath16" clipPathUnits="userSpaceOnUse"><path id="path18" d="m0 612h792v-612h-792v612z"/></clipPath></defs><g id="g10" transform="matrix(1.25 0 0 -1.25 -381.76 627.24)"><g id="g12"><g id="g14" clip-path="url(#clipPath16)"><g id="g20" fill="#0c1428" transform="translate(620.49,407.96)"><path id="path22" d="m0 0c0-75.742-0.004-151.48 0.034-227.22 0-1.342-0.303-1.645-1.646-1.645-86.962 0.037-173.92 0.034-260.89 0.034-0.867 0.427-1.575 1.05-2.256 1.731-12.442 12.456-24.896 24.901-37.334 37.361-0.654 0.655-1.903 1.381-1.473 2.241 0.516 1.028 1.821 0.233 2.77 0.158 3.703-0.29 7.388-0.483 10.967 0.836 5.336 1.967 9.256 7.862 8.924 13.44-0.084 1.404-2.758 2.759-3.937 1.978-0.603-0.399-0.461-1.07-0.438-1.642 0.086-2.153-0.422-4.119-1.566-5.96-1.548-2.49-3.798-3.922-6.605-4.498-2.36-0.484-4.754-0.478-7.117-0.02-4.994 0.968-8.246 4.911-8.256 10.014-0.021 10.385-0.02 20.769-0.001 31.154 0.01 5.379 3.196 9.272 8.491 10.14 3.258 0.534 6.538 0.552 9.631-0.995 3.498-1.749 5.118-4.669 5.401-8.453 0.04-0.535 0.002-1.074 0.032-1.611 0.044-0.805 0.452-1.136 1.269-1.142 2.642-0.019 3.238 0.506 3.084 3.094-0.294 4.935-2.544 8.768-6.763 11.353-1.34 0.821-2.53 1.77-3.629 2.876-3.744 3.767-7.508 7.516-11.263 11.272-0.38 0.38-0.782 0.741-1.124 1.155-0.368 0.444-1.016 0.929-0.617 1.523 0.385 0.572 1.095 0.241 1.658 0.06 3.661-1.183 7.389-1.264 11.149-0.658 6.768 1.091 11.671 6.572 12.025 13.403 0.109 2.095-1.779 3.52-3.742 2.825-0.871-0.308-0.628-1.074-0.622-1.677 0.03-2.806-0.811-5.236-2.711-7.361-3.017-3.373-6.928-3.668-11.013-3.351-1.659 0.128-3.308 0.46-4.793 1.333-3.239 1.905-5.034 4.654-5.035 8.477-0.002 10.563-0.008 21.127 0.002 31.69 0.005 5.063 2.946 8.796 7.873 9.898 2.468 0.553 5.007 0.548 7.47 0.062 4.846-0.958 8.009-4.928 8.206-9.951 0.035-0.887-0.46-2.334 1.247-2.167 2.647 0.26 3.178 0.239 3.117 2.358-0.076 2.669-0.73 5.19-2.187 7.464-0.225 0.352-0.503 0.67-0.712 1.03-0.314 0.541-0.96 1.137-0.371 1.735 0.476 0.484 1.142 0.055 1.652-0.229 1.464-0.814 2.842-1.749 4.032-2.948 2.524-2.54 5.021-5.11 7.612-7.58 1.27-1.211 1.742-2.561 1.736-4.294-0.044-12.532-0.027-25.066-0.022-37.599 0.001-2.227 0.162-2.378 2.288-2.364 1.948 0.013 2.097 0.147 2.1 2.181 0.011 6.624-0.002 13.249 0.007 19.874 0.004 2.784 0.212 3.028 2.908 3.002 5.865-0.056 4.839 0.734 8.061-4.374 3.884-6.158 7.81-12.288 11.693-18.446 1.329-2.106 3.139-2.837 5.457-2.211 1.133 0.306 0.404 0.901 0.142 1.32-2.408 3.843-4.851 7.664-7.285 11.49-2.082 3.273-4.168 6.543-6.202 9.846-1.143 1.856-1.031 2.09 1.103 2.503 6.059 1.172 10.312 4.513 11.708 10.618 0.85 3.713 0.746 7.647 0.056 11.391-1.147 6.223-6.815 10.724-13.396 10.884-5.547 0.135-11.1 0.005-16.65 0.048-1.458 0.011-2.072-0.548-2.004-2.008 0.059-1.25 0.039-2.507-0.007-3.759-0.021-0.589 0.049-1.316-0.561-1.602-0.68-0.319-1.259 0.185-1.739 0.626-1.846 1.692-3.669 3.416-5.473 5.147-4.691 4.501-9.576 8.794-14.218 13.348-1.023 1.003-1.106 1.592-0.154 2.736 3.742 4.496 7.809 8.693 11.704 13.047 3.847 4.301 7.775 8.531 11.697 12.924-0.739 0.531-1.472 0.341-2.144 0.342-13.129 0.012-26.259 0.009-39.389 0.01-0.716 0-1.433-0.017-2.147 0.045-1.123 0.098-1.776 0.704-1.813 1.83-0.1 3.101-0.087 6.205-0.006 9.307 0.029 1.136 0.785 1.665 1.751 2.005 1.745 0.616 3.528 1.114 5.289 1.679 10.907 3.503 21.833 6.951 32.751 10.422 22.518 7.159 45.037 14.317 67.558 21.47 12.113 3.847 24.212 7.742 36.33 11.575 18.66 5.902 37.294 11.887 55.963 17.76 11.042 3.473 22.066 7.007 33.094 10.527 21.203 6.768 42.427 13.47 63.624 20.256 1.137 0.363 2.338 0.323 3.466 0.688h0.358c0.766-0.399 0.977-1.161 1.241-1.891 1.033-2.865 1.814-5.81 2.765-8.701 0.656-1.996 0.318-2.642-1.753-3.339-6.559-2.211-13.18-4.236-19.774-6.339-9.721-3.1-19.444-6.198-29.171-9.277-19.456-6.158-38.896-12.368-58.351-18.529-13.823-4.378-27.634-8.795-41.451-13.191-20.357-6.477-40.713-12.956-61.071-19.428-11.885-3.778-23.779-7.529-35.643-11.375-1.831-0.593-3.644-1.272-5.071-1.385 0.923 0.237 2.381 0.155 3.834 0.155 84.25 0.003 168.52 0.004 252.79-0.01 1.167 0 2.405 0.301 3.46-0.515" fill="#0c1428"/></g><g id="g24" transform="translate(467.24,338.81)"><path id="path26" d="m0 0c-2.803-11.011-5.604-22.022-8.411-33.032-0.838-3.285-1.74-6.555-2.516-9.855-0.242-1.032-0.7-1.318-1.702-1.262-0.893 0.05-1.481 0.062-1.779 1.196-4.978 18.929-10.005 37.845-15.071 56.751-0.301 1.123-0.043 1.249 0.984 1.26 4.014 0.042 4.031 0.08 5.043-3.834 3.395-13.133 6.776-26.27 10.163-39.405 0.148-0.573 0.305-1.145 0.594-2.228 0.944 3.639 1.782 6.811 2.589 9.991 2.87 11.303 5.748 22.604 8.566 33.92 0.271 1.088 0.581 1.574 1.821 1.587 1.291 0.015 1.675-0.426 1.976-1.631 3.667-14.658 7.406-29.299 11.155-44.061 3.773 14.677 7.542 29.256 11.238 43.853 0.351 1.387 0.84 2.022 2.343 1.815 1.094-0.152 2.225-0.03 3.488-0.03 0.217 0.828-3.541-13.508-5.485-20.873-3.219-12.194-6.481-24.378-9.631-36.59-0.389-1.511-1.093-1.859-2.457-1.714-0.63 0.067-0.943 0.25-1.107 0.89-3.711 14.524-7.441 29.042-11.168 43.562-0.28 0.407-0.395 0.814-0.068 1.247-0.347-0.453-0.209-1.105-0.565-1.557" fill="#fefefe"/></g><g id="g28" transform="translate(467.24,338.81)"><path id="path30" d="m0 0c-2.803-11.011-5.604-22.022-8.411-33.032-0.838-3.285-1.74-6.555-2.516-9.855-0.242-1.032-0.7-1.318-1.702-1.262-0.893 0.05-1.481 0.062-1.779 1.196-4.978 18.929-10.005 37.845-15.071 56.751-0.301 1.123-0.043 1.249 0.984 1.26 4.014 0.042 4.031 0.08 5.043-3.834 3.395-13.133 6.776-26.27 10.163-39.405 0.148-0.573 0.305-1.145 0.594-2.228 0.944 3.639 1.782 6.811 2.589 9.991 2.87 11.303 5.748 22.604 8.566 33.92 0.271 1.088 0.581 1.574 1.821 1.587 1.291 0.015 1.675-0.426 1.976-1.631 3.667-14.658 7.406-29.299 11.155-44.061 3.773 14.677 7.542 29.256 11.238 43.853 0.351 1.387 0.84 2.022 2.343 1.815 1.094-0.152 2.225-0.03 3.488-0.03 0.217 0.828-3.541-13.508-5.485-20.873-3.219-12.194-6.481-24.378-9.631-36.59-0.389-1.511-1.093-1.859-2.457-1.714-0.63 0.067-0.943 0.25-1.107 0.89-3.711 14.524-7.441 29.042-11.168 43.562-0.28 0.407-0.395 0.814-0.068 1.247-0.347-0.453-0.209-1.105-0.565-1.557z" stroke="#fff" stroke-miterlimit="10" stroke-width="4" fill="none"/></g><g id="g32" transform="translate(518.76,235.81)"><path id="path34" d="m0 0c0 14.08 0.032 28.161-0.042 42.241-0.009 1.664 0.445 2.078 2.053 2.017 3.343-0.125 3.346-0.036 3.346-3.382 0-18.019 0.006-36.038-0.026-54.057-0.001-0.592 0.54-1.638-0.581-1.734-0.962-0.082-2.044-0.474-2.797 0.849-7.948 13.965-15.953 27.897-23.963 41.827-0.159 0.277 0.004 0.739-0.606 0.895v-1.956c0-13.306-0.021-26.611 0.032-39.917 0.005-1.389-0.322-1.825-1.759-1.79-3.623 0.086-3.624 0.012-3.624 3.63 0 17.9-0.007 35.8 0.029 53.7 0.002 0.627-0.613 1.725 0.635 1.859 0.989 0.107 1.978 0.303 2.717-0.999 7.836-13.823 15.756-27.599 23.656-41.386 0.322-0.562 0.618-1.13 0.93-1.797" fill="#fefefe"/></g><g id="g36" transform="translate(518.76,235.81)"><path id="path38" d="m0 0c0 14.08 0.032 28.161-0.042 42.241-0.009 1.664 0.445 2.078 2.053 2.017 3.343-0.125 3.346-0.036 3.346-3.382 0-18.019 0.006-36.038-0.026-54.057-0.001-0.592 0.54-1.638-0.581-1.734-0.962-0.082-2.044-0.474-2.797 0.849-7.948 13.965-15.953 27.897-23.963 41.827-0.159 0.277 0.004 0.739-0.606 0.895v-1.956c0-13.306-0.021-26.611 0.032-39.917 0.005-1.389-0.322-1.825-1.759-1.79-3.623 0.086-3.624 0.012-3.624 3.63 0 17.9-0.007 35.8 0.029 53.7 0.002 0.627-0.613 1.725 0.635 1.859 0.989 0.107 1.978 0.303 2.717-0.999 7.836-13.823 15.756-27.599 23.656-41.386 0.322-0.562 0.618-1.13 0.93-1.797z" stroke="#fff" stroke-miterlimit="10" stroke-width="4" fill="none"/></g><g id="g40" transform="translate(506.19,324.16)"><path id="path42" d="m0 0c0 9.303 0.04 18.607-0.04 27.909-0.013 1.54 0.44 1.838 1.884 1.815 5.545-0.09 11.092-0.02 16.638-0.041 8.365-0.031 14.766-6.298 14.825-14.649 0.07-9.958 0.064-19.918 0.002-29.877-0.053-8.312-6.304-14.532-14.625-14.615-5.725-0.057-11.451 0.033-17.175-0.045-1.299-0.018-1.544 0.378-1.538 1.594 0.053 9.302 0.029 18.606 0.029 27.909" fill="#fefefe"/></g><g id="g44" transform="translate(506.19,324.16)"><path id="path46" d="m0 0c0 9.303 0.04 18.607-0.04 27.909-0.013 1.54 0.44 1.838 1.884 1.815 5.545-0.09 11.092-0.02 16.638-0.041 8.365-0.031 14.766-6.298 14.825-14.649 0.07-9.958 0.064-19.918 0.002-29.877-0.053-8.312-6.304-14.532-14.625-14.615-5.725-0.057-11.451 0.033-17.175-0.045-1.299-0.018-1.544 0.378-1.538 1.594 0.053 9.302 0.029 18.606 0.029 27.909z" stroke="#fff" stroke-miterlimit="10" stroke-width="4" fill="none"/></g><g id="g48" transform="translate(396.52,324.24)"><path id="path50" d="m0 0c0 5.01-0.026 10.019 0.006 15.029 0.059 9.385 6.095 15.361 15.493 15.349 2.437-0.004 4.887 0.194 7.285-0.501 6.192-1.796 10.495-7.362 10.537-13.957 0.069-10.615 0.079-21.232-0.002-31.847-0.058-7.513-5.371-13.435-12.828-14.333-3.311-0.399-6.671-0.485-9.944 0.426-5.955 1.657-10.258 6.862-10.453 13.018-0.179 5.6-0.038 11.21-0.038 16.816h-0.056" fill="#fefefe"/></g><g id="g52" transform="translate(396.52,324.24)"><path id="path54" d="m0 0c0 5.01-0.026 10.019 0.006 15.029 0.059 9.385 6.095 15.361 15.493 15.349 2.437-0.004 4.887 0.194 7.285-0.501 6.192-1.796 10.495-7.362 10.537-13.957 0.069-10.615 0.079-21.232-0.002-31.847-0.058-7.513-5.371-13.435-12.828-14.333-3.311-0.399-6.671-0.485-9.944 0.426-5.955 1.657-10.258 6.862-10.453 13.018-0.179 5.6-0.038 11.21-0.038 16.816h-0.056z" stroke="#fff" stroke-miterlimit="10" stroke-width="4" fill="none"/></g><g id="g56" transform="translate(565.27,225.54)"><path id="path58" d="m0 0c-5.119-6.309-11.728-6.533-18.551-4.735-5.883 1.55-9.927 7.27-9.973 13.417-0.08 10.799-0.102 21.599 0.004 32.397 0.077 7.864 6.491 14.131 14.335 14.193 2.378 0.019 4.767 0.226 7.138-0.24 7.472-1.468 12.528-8.196 11.807-15.762-0.027-0.28-0.062-0.593-0.205-0.821-0.179-0.287-4.639-0.927-4.894-0.741-0.414 0.303-0.223 0.757-0.244 1.148-0.072 1.308 0.097 2.671-0.212 3.916-0.976 3.93-3.466 6.461-7.509 7.223-2.295 0.432-4.643 0.412-6.941 0.029-4.65-0.774-7.907-4.509-7.931-9.189-0.054-10.62-0.053-21.241-0.002-31.861 0.022-4.751 3.368-8.563 8.044-9.284 2.246-0.347 4.522-0.347 6.769 0.027 4.414 0.735 7.667 4.467 7.751 8.958 0.072 3.817-0.008 7.637 0.046 11.455 0.013 0.929-0.227 1.232-1.186 1.204-2.324-0.069-4.653 0.006-6.979-0.038-0.846-0.016-1.249 0.096-1.283 1.126-0.129 3.972-0.175 3.971 3.778 3.971 3.222 0 6.444-0.028 9.666 0.018 0.916 0.013 1.369-0.088 1.363-1.211-0.046-9.546-0.021-19.092-0.041-28.639-0.001-0.446 0.346-1.163-0.548-1.246-0.604-0.056-1.154-0.03-1.544 0.603-0.807 1.313-1.678 2.587-2.658 4.082" fill="#fefefe"/></g><g id="g60" transform="translate(565.27,225.54)"><path id="path62" d="m0 0c-5.119-6.309-11.728-6.533-18.551-4.735-5.883 1.55-9.927 7.27-9.973 13.417-0.08 10.799-0.102 21.599 0.004 32.397 0.077 7.864 6.491 14.131 14.335 14.193 2.378 0.019 4.767 0.226 7.138-0.24 7.472-1.468 12.528-8.196 11.807-15.762-0.027-0.28-0.062-0.593-0.205-0.821-0.179-0.287-4.639-0.927-4.894-0.741-0.414 0.303-0.223 0.757-0.244 1.148-0.072 1.308 0.097 2.671-0.212 3.916-0.976 3.93-3.466 6.461-7.509 7.223-2.295 0.432-4.643 0.412-6.941 0.029-4.65-0.774-7.907-4.509-7.931-9.189-0.054-10.62-0.053-21.241-0.002-31.861 0.022-4.751 3.368-8.563 8.044-9.284 2.246-0.347 4.522-0.347 6.769 0.027 4.414 0.735 7.667 4.467 7.751 8.958 0.072 3.817-0.008 7.637 0.046 11.455 0.013 0.929-0.227 1.232-1.186 1.204-2.324-0.069-4.653 0.006-6.979-0.038-0.846-0.016-1.249 0.096-1.283 1.126-0.129 3.972-0.175 3.971 3.778 3.971 3.222 0 6.444-0.028 9.666 0.018 0.916 0.013 1.369-0.088 1.363-1.211-0.046-9.546-0.021-19.092-0.041-28.639-0.001-0.446 0.346-1.163-0.548-1.246-0.604-0.056-1.154-0.03-1.544 0.603-0.807 1.313-1.678 2.587-2.658 4.082z" stroke="#fff" stroke-miterlimit="10" stroke-width="4" fill="none"/></g><g id="g64" transform="translate(406.37,219.99)"><path id="path66" d="m0 0c-6.94-0.291-12.295 2.287-15.583 8.608-1.224 2.353-1.41 4.887-1.357 7.477 0.015 0.696 0.318 0.941 0.945 1.02 1.123 0.142 2.261 0.242 3.355 0.511 1.004 0.247 1.081-0.199 1.079-0.992-0.004-1.427-0.17-2.876 0.257-4.269 1.164-3.805 3.712-6.202 7.589-7.018 2.522-0.531 5.11-0.472 7.651-0.025 4.482 0.788 7.703 4.762 7.914 9.296 0.27 5.803-1.405 9.229-7.876 12.198-3.942 1.808-8.165 2.967-12.007 5.015-8.551 4.558-10.937 16.082-4.871 23.594 2.819 3.491 6.535 5.315 11.019 5.403 2.673 0.052 5.371 0.264 8.007-0.474 6.432-1.799 10.804-7.709 10.693-14.398-0.013-0.838-0.139-1.277-1.106-1.349-1.302-0.097-2.808-0.891-3.824-0.453-1.113 0.48-0.321 2.204-0.483 3.372-0.539 3.902-3.543 7.216-7.415 7.988-2.242 0.447-4.52 0.437-6.762 0.08-3.663-0.583-6.305-2.672-7.421-6.18-1.167-3.664-1.029-7.319 1.708-10.427 1.819-2.067 4.211-3.267 6.702-4.307 3.839-1.603 7.735-3.058 11.426-5.017 10.21-5.419 9.927-21.567 0.949-27.121-2.973-1.839-5.464-2.53-10.589-2.532" fill="#fefefe"/></g><g id="g68" transform="translate(406.37,219.99)"><path id="path70" d="m0 0c-6.94-0.291-12.295 2.287-15.583 8.608-1.224 2.353-1.41 4.887-1.357 7.477 0.015 0.696 0.318 0.941 0.945 1.02 1.123 0.142 2.261 0.242 3.355 0.511 1.004 0.247 1.081-0.199 1.079-0.992-0.004-1.427-0.17-2.876 0.257-4.269 1.164-3.805 3.712-6.202 7.589-7.018 2.522-0.531 5.11-0.472 7.651-0.025 4.482 0.788 7.703 4.762 7.914 9.296 0.27 5.803-1.405 9.229-7.876 12.198-3.942 1.808-8.165 2.967-12.007 5.015-8.551 4.558-10.937 16.082-4.871 23.594 2.819 3.491 6.535 5.315 11.019 5.403 2.673 0.052 5.371 0.264 8.007-0.474 6.432-1.799 10.804-7.709 10.693-14.398-0.013-0.838-0.139-1.277-1.106-1.349-1.302-0.097-2.808-0.891-3.824-0.453-1.113 0.48-0.321 2.204-0.483 3.372-0.539 3.902-3.543 7.216-7.415 7.988-2.242 0.447-4.52 0.437-6.762 0.08-3.663-0.583-6.305-2.672-7.421-6.18-1.167-3.664-1.029-7.319 1.708-10.427 1.819-2.067 4.211-3.267 6.702-4.307 3.839-1.603 7.735-3.058 11.426-5.017 10.21-5.419 9.927-21.567 0.949-27.121-2.973-1.839-5.464-2.53-10.589-2.532z" stroke="#fff" stroke-miterlimit="10" stroke-width="4" fill="none"/></g><g id="g72" transform="translate(380.31,220.84)"><path id="path74" d="m0 0c-1.842-0.564-2.574 0.527-3.031 2.459-0.805 3.41-1.908 6.749-2.81 10.138-0.243 0.914-0.631 1.211-1.579 1.203-5.427-0.046-10.854-0.043-16.281-0.002-0.943 0.007-1.316-0.276-1.564-1.217-0.982-3.737-2.117-7.433-3.112-11.167-0.267-1.003-0.591-1.456-1.756-1.45-4.216 0.023-4.215-0.033-3.014 4.064 5.25 17.911 10.509 35.82 15.721 53.742 0.295 1.017 0.608 1.464 1.765 1.471 1.192 0.008 1.614-0.425 1.929-1.504 4.88-16.72 9.8-33.427 14.714-50.137 0.57-1.939 1.075-3.903 1.764-5.8 0.541-1.492 0.245-2.075-1.378-1.808-0.349 0.057-0.715 0.008-1.368 0.008" fill="#fefefe"/></g><g id="g76" transform="translate(380.31,220.84)"><path id="path78" d="m0 0c-1.842-0.564-2.574 0.527-3.031 2.459-0.805 3.41-1.908 6.749-2.81 10.138-0.243 0.914-0.631 1.211-1.579 1.203-5.427-0.046-10.854-0.043-16.281-0.002-0.943 0.007-1.316-0.276-1.564-1.217-0.982-3.737-2.117-7.433-3.112-11.167-0.267-1.003-0.591-1.456-1.756-1.45-4.216 0.023-4.215-0.033-3.014 4.064 5.25 17.911 10.509 35.82 15.721 53.742 0.295 1.017 0.608 1.464 1.765 1.471 1.192 0.008 1.614-0.425 1.929-1.504 4.88-16.72 9.8-33.427 14.714-50.137 0.57-1.939 1.075-3.903 1.764-5.8 0.541-1.492 0.245-2.075-1.378-1.808-0.349 0.057-0.715 0.008-1.368 0.008z" stroke="#fff" stroke-miterlimit="10" stroke-width="4" fill="none"/></g><g id="g80" transform="translate(606.92,334.45)"><path id="path82" d="m0 0c-6.039 8.885-11.788 17.342-17.535 25.8-0.836 1.23-1.586 2.531-2.524 3.678-0.935 1.143-0.94 1.9 0.136 3.061 6.403 6.905 12.704 13.905 19.041 20.872 0.225 0.247 0.458 0.487 0.882 0.937v-54.348z" fill="#fefefe"/></g><g id="g84" transform="translate(444.62,394.29)"><path id="path86" d="m0 0c-5.499-6.049-10.626-11.687-15.752-17.325-2.405-2.646-5.156-5.063-7.102-8.011-1.418-2.148-3.028-2.092-5.001-2.08-4.802 0.028-9.604 0.009-14.427 0.009-0.002 0.772 0.534 1.045 0.869 1.415 7.525 8.3 15.064 16.587 22.605 24.872 0.508 0.557 0.937 1.149 1.88 1.141 5.466-0.043 10.932-0.021 16.928-0.021" fill="#fefefe"/></g><g id="g88" transform="translate(448.19,366.89)"><path id="path90" d="m0 0c1.18 1.311 2.082 2.32 2.993 3.322 6.901 7.589 13.804 15.178 20.71 22.764 0.468 0.515 0.837 1.087 1.717 1.081 5.536-0.038 11.073-0.019 16.65-0.019-0.002-0.747-0.543-0.998-0.87-1.358-7.091-7.82-14.369-15.481-21.183-23.535-1.767-2.089-3.391-2.294-5.606-2.27-4.647 0.05-9.295 0.015-14.411 0.015" fill="#fefefe"/></g><g id="g92" transform="translate(494.88,366.89)"><path id="path94" d="m0 0c-0.034 0.746 0.459 0.974 0.754 1.299 7.408 8.164 14.841 16.304 22.232 24.484 0.784 0.868 1.562 1.254 2.758 1.238 5.18-0.069 10.362-0.029 15.562-0.029 0.122-0.825-0.426-1.091-0.743-1.44-6.642-7.33-13.3-14.645-19.955-21.963-0.441-0.485-1.097-0.895-1.292-1.463-0.882-2.568-2.947-2.145-4.911-2.134-4.8 0.025-9.599 0.008-14.405 0.008" fill="#fefefe"/></g><g id="g96" transform="translate(582.82,393.64)"><path id="path98" d="m0 0c-7.101-7.805-13.855-15.21-20.58-22.641-1.03-1.138-2.313-2.101-2.862-3.617-0.233-0.644-0.73-0.493-1.179-0.493-5.663-0.006-11.326-0.004-16.972-0.004-0.325 0.591 0.194 0.786 0.436 1.053 7.461 8.216 14.942 16.413 22.386 24.645 0.699 0.772 1.388 1.095 2.444 1.084 5.286-0.059 10.573-0.027 16.327-0.027" fill="#fefefe"/></g><g id="g100" transform="translate(449.33,247.79)"><path id="path102" d="m0 0c0-8.471-0.028-16.941 0.03-25.411 0.008-1.252-0.327-1.58-1.567-1.564-3.802 0.049-3.802-0.007-3.802 3.818 0 16.166-0.024 32.331 0.038 48.497 0.006 1.52-0.396 1.876-1.865 1.829-3.575-0.114-7.157-0.004-10.736-0.057-1.084-0.017-1.556 0.156-1.542 1.433 0.04 3.702-0.029 3.702 3.727 3.702 9.306 0 18.612-0.035 27.917 0.036 1.513 0.011 2.078-0.266 2.006-1.922-0.142-3.225-0.036-3.229-3.345-3.229-3.102 0-6.205-0.059-9.305 0.029-1.242 0.035-1.594-0.308-1.586-1.571 0.057-8.529 0.03-17.06 0.03-25.59" fill="#fefefe"/></g><g id="g104" transform="translate(449.33,247.79)"><path id="path106" d="m0 0c0-8.471-0.028-16.941 0.03-25.411 0.008-1.252-0.327-1.58-1.567-1.564-3.802 0.049-3.802-0.007-3.802 3.818 0 16.166-0.024 32.331 0.038 48.497 0.006 1.52-0.396 1.876-1.865 1.829-3.575-0.114-7.157-0.004-10.736-0.057-1.084-0.017-1.556 0.156-1.542 1.433 0.04 3.702-0.029 3.702 3.727 3.702 9.306 0 18.612-0.035 27.917 0.036 1.513 0.011 2.078-0.266 2.006-1.922-0.142-3.225-0.036-3.229-3.345-3.229-3.102 0-6.205-0.059-9.305 0.029-1.242 0.035-1.594-0.308-1.586-1.571 0.057-8.529 0.03-17.06 0.03-25.59z" stroke="#fff" stroke-miterlimit="10" stroke-width="4" fill="none"/></g><g id="g108" transform="translate(358.64,366.89)"><path id="path110" d="m0 0c5.967 6.566 11.614 12.781 17.262 18.995 2.246 2.471 4.522 4.914 6.723 7.423 0.68 0.775 1.359 1.148 2.425 1.133 4.325-0.061 8.651-0.025 13.38-0.025-0.679-0.772-1.086-1.247-1.506-1.71-7.059-7.762-14.301-15.37-21.059-23.385-1.847-2.191-3.543-2.513-5.93-2.454-3.614 0.089-7.232 0.023-11.295 0.023" fill="#fefefe"/></g><g id="g112" transform="translate(477.25,250.57)"><path id="path114" d="m0 0c0-9.368-0.035-18.737 0.038-28.105 0.01-1.386-0.373-1.679-1.684-1.654-3.712 0.07-3.713 0.009-3.713 3.717 0 17.901 0.019 35.803-0.036 53.704-0.004 1.507 0.406 1.884 1.876 1.839 3.517-0.106 3.519-0.028 3.519-3.544v-25.957" fill="#fefefe"/></g><g id="g116" transform="translate(477.25,250.57)"><path id="path118" d="m0 0c0-9.368-0.035-18.737 0.038-28.105 0.01-1.386-0.373-1.679-1.684-1.654-3.712 0.07-3.713 0.009-3.713 3.717 0 17.901 0.019 35.803-0.036 53.704-0.004 1.507 0.406 1.884 1.876 1.839 3.517-0.106 3.519-0.028 3.519-3.544v-25.957z" stroke="#fff" stroke-miterlimit="10" stroke-width="4" fill="none"/></g><g id="g120" transform="translate(358.82,324.94)"><path id="path122" d="m0 0c-1.053-0.015-1.128 0.498-1.122 1.318 0.026 3.577 0.012 7.155 0.012 10.733-0.001 3.458 0.039 6.917-0.024 10.374-0.019 1.081 0.274 1.443 1.394 1.424 3.815-0.065 7.633 0.029 11.448-0.039 5.782-0.103 9.589-3.827 9.85-9.603 0.078-1.724 0.082-3.464-0.052-5.183-0.4-5.132-4.032-8.751-9.165-8.951-4.108-0.16-8.228-0.016-12.341-0.073m12.565-5.277c1.99 0 3.859 0.374 5.603 1.124 1.745 0.75 3.27 1.779 4.58 3.088 1.308 1.308 2.336 2.841 3.086 4.6 0.751 1.758 1.125 3.632 1.125 5.622v4.744c0 1.989-0.374 3.864-1.125 5.622-0.75 1.758-1.778 3.292-3.086 4.6-1.31 1.309-2.835 2.338-4.58 3.087-1.744 0.75-3.613 1.125-5.603 1.125h-18.604v-58.637h5.274v25.025h7.239l15.905-25.025h6.093l-15.907 25.025z" fill="#fff"/></g><g id="g124" transform="translate(358.82,324.94)"><path id="path126" d="m0 0c-1.053-0.015-1.128 0.498-1.122 1.318 0.026 3.577 0.012 7.155 0.012 10.733-0.001 3.458 0.039 6.917-0.024 10.374-0.019 1.081 0.274 1.443 1.394 1.424 3.815-0.065 7.633 0.029 11.448-0.039 5.782-0.103 9.589-3.827 9.85-9.603 0.078-1.724 0.082-3.464-0.052-5.183-0.4-5.132-4.032-8.751-9.165-8.951-4.108-0.16-8.228-0.016-12.341-0.073zm12.565-5.277c1.99 0 3.859 0.374 5.603 1.124 1.745 0.75 3.27 1.779 4.58 3.088 1.308 1.308 2.336 2.841 3.086 4.6 0.751 1.758 1.125 3.632 1.125 5.622v4.744c0 1.989-0.374 3.864-1.125 5.622-0.75 1.758-1.778 3.292-3.086 4.6-1.31 1.309-2.835 2.338-4.58 3.087-1.744 0.75-3.613 1.125-5.603 1.125h-18.604v-58.637h5.274v25.025h7.239l15.905-25.025h6.093l-15.907 25.025z" stroke="#fff" stroke-miterlimit="10" stroke-width="4" fill="none"/></g><g id="g128" transform="translate(380.33,333.97)"><path id="path130" d="m0 0c0.134 1.719 0.13 3.459 0.052 5.183-0.261 5.776-4.068 9.499-9.85 9.603-3.815 0.068-7.633-0.027-11.448 0.039-1.12 0.019-1.413-0.343-1.393-1.424 0.062-3.457 0.023-6.916 0.023-10.375 0-3.577 0.015-7.155-0.011-10.733-0.006-0.819 0.068-1.332 1.121-1.317 4.114 0.057 8.233-0.088 12.341 0.072 5.133 0.2 8.765 3.819 9.165 8.952"/></g><g id="g132" transform="translate(380.33,333.97)"><path id="path134" d="m0 0c0.134 1.719 0.13 3.459 0.052 5.183-0.261 5.776-4.068 9.499-9.85 9.603-3.815 0.068-7.633-0.027-11.448 0.039-1.12 0.019-1.413-0.343-1.393-1.424 0.062-3.457 0.023-6.916 0.023-10.375 0-3.577 0.015-7.155-0.011-10.733-0.006-0.819 0.068-1.332 1.121-1.317 4.114 0.057 8.233-0.088 12.341 0.072 5.133 0.2 8.765 3.819 9.165 8.952z" stroke="#fff" stroke-miterlimit="10" stroke-width="4" fill="#0c1428"/></g><g fill="#0c1428"><g id="g136" transform="translate(511.54,324.35)"><path id="path138" fill="#0c1428" d="m0 0c0 7.577 0.029 15.154-0.028 22.73-0.01 1.273 0.213 1.771 1.635 1.726 3.576-0.114 7.158-0.013 10.738-0.043 6.323-0.053 10.262-4.009 10.268-10.303 0.01-9.486 0.01-18.972 0-28.458-0.006-6.319-3.929-10.205-10.285-10.212-3.58-0.003-7.162 0.081-10.738-0.04-1.413-0.048-1.63 0.415-1.62 1.691 0.061 7.636 0.03 15.272 0.03 22.909"/></g><g id="g140" transform="translate(401.86,324.34)"><path id="path142" fill="#0c1428" d="m0 0c0 4.77 0.176 9.548-0.04 14.308-0.343 7.531 5.264 11.431 10.899 10.938 1.185-0.104 2.399 0.049 3.571-0.116 4.749-0.671 8.171-4.482 8.203-9.339 0.068-10.613 0.081-21.227-0.007-31.84-0.042-5.084-3.731-8.902-8.774-9.345-1.839-0.161-3.694-0.174-5.535 0.053-4.465 0.552-8.029 4.045-8.192 8.531-0.203 5.596-0.049 11.206-0.049 16.81h-0.076"/></g><g id="g144" transform="translate(365.09,266.46)"><path id="path146" fill="#0c1428" d="m0 0c2.51-8.851 5.02-17.701 7.564-26.669h-15.754c2.54 9.014 5.072 18.006 7.605 26.998 0.411 0.274 0.454-0.106 0.585-0.329"/></g></g><g id="g148" transform="translate(365.09,266.46)"><path id="path150" d="m0 0c-0.195 0.11-0.39 0.219-0.585 0.329-0.109 0.333-0.047 0.942 0.081 0.909 0.615-0.16 0.55-0.729 0.504-1.238" fill="#909090"/></g><g id="g152" transform="translate(336.55,350.51)"><path id="path154" d="m0 0c-1.305 1.305-2.827 2.329-4.565 3.077-1.739 0.747-3.601 1.12-5.583 1.12h-4.156c-1.984 0-3.852-0.373-5.603-1.12-1.753-0.748-3.282-1.772-4.586-3.077-1.303-1.304-2.328-2.825-3.077-4.564-0.747-1.738-1.119-3.6-1.119-5.582v-31.378c0-1.983 0.372-3.845 1.119-5.583 0.749-1.739 1.774-3.26 3.077-4.564 1.304-1.304 2.833-2.33 4.586-3.077 1.751-0.747 3.619-1.121 5.603-1.121h4.156c1.982 0 3.844 0.374 5.583 1.121 1.738 0.747 3.26 1.773 4.565 3.077 1.304 1.304 2.329 2.825 3.076 4.564 0.747 1.738 1.121 3.6 1.121 5.583v2.323l-5.258 0.855v-3.178c0-1.304-0.244-2.52-0.732-3.648-0.49-1.127-1.156-2.118-1.998-2.974-0.843-0.856-1.828-1.528-2.953-2.018-1.128-0.488-2.345-0.733-3.649-0.733h-3.667c-1.304 0-2.52 0.245-3.648 0.733-1.127 0.49-2.119 1.162-2.974 2.018-0.856 0.856-1.528 1.847-2.017 2.974-0.49 1.128-0.734 2.344-0.734 3.648v31.378c0 1.303 0.244 2.519 0.734 3.647 0.489 1.126 1.161 2.112 2.017 2.954 0.855 0.842 1.847 1.508 2.974 1.997 1.128 0.489 2.344 0.733 3.648 0.733h3.667c1.304 0 2.521-0.244 3.649-0.733 1.125-0.489 2.11-1.155 2.953-1.997 0.842-0.842 1.508-1.828 1.998-2.954 0.488-1.128 0.732-2.344 0.732-3.647v-3.179l5.258 0.815v2.364c0 1.982-0.374 3.844-1.121 5.582-0.747 1.739-1.772 3.26-3.076 4.564" fill="#fff"/></g><g id="g156" transform="translate(336.55,350.51)"><path id="path158" d="m0 0c-1.305 1.305-2.827 2.329-4.565 3.077-1.739 0.747-3.601 1.12-5.583 1.12h-4.156c-1.984 0-3.852-0.373-5.603-1.12-1.753-0.748-3.282-1.772-4.586-3.077-1.303-1.304-2.328-2.825-3.077-4.564-0.747-1.738-1.119-3.6-1.119-5.582v-31.378c0-1.983 0.372-3.845 1.119-5.583 0.749-1.739 1.774-3.26 3.077-4.564 1.304-1.304 2.833-2.33 4.586-3.077 1.751-0.747 3.619-1.121 5.603-1.121h4.156c1.982 0 3.844 0.374 5.583 1.121 1.738 0.747 3.26 1.773 4.565 3.077 1.304 1.304 2.329 2.825 3.076 4.564 0.747 1.738 1.121 3.6 1.121 5.583v2.323l-5.258 0.855v-3.178c0-1.304-0.244-2.52-0.732-3.648-0.49-1.127-1.156-2.118-1.998-2.974-0.843-0.856-1.828-1.528-2.953-2.018-1.128-0.488-2.345-0.733-3.649-0.733h-3.667c-1.304 0-2.52 0.245-3.648 0.733-1.127 0.49-2.119 1.162-2.974 2.018-0.856 0.856-1.528 1.847-2.017 2.974-0.49 1.128-0.734 2.344-0.734 3.648v31.378c0 1.303 0.244 2.519 0.734 3.647 0.489 1.126 1.161 2.112 2.017 2.954 0.855 0.842 1.847 1.508 2.974 1.997 1.128 0.489 2.344 0.733 3.648 0.733h3.667c1.304 0 2.521-0.244 3.649-0.733 1.125-0.489 2.11-1.155 2.953-1.997 0.842-0.842 1.508-1.828 1.998-2.954 0.488-1.128 0.732-2.344 0.732-3.647v-3.179l5.258 0.815v2.364c0 1.982-0.374 3.844-1.121 5.582-0.747 1.739-1.772 3.26-3.076 4.564z" stroke="#fff" stroke-miterlimit="10" stroke-width="4" fill="none"/></g><g id="g160" transform="translate(335.62,274.85)"><path id="path162" d="m0 0c-1.284 1.283-2.78 2.291-4.489 3.026-1.71 0.734-3.541 1.102-5.49 1.102h-4.087c-1.95 0-3.787-0.368-5.51-1.102-1.724-0.735-3.227-1.743-4.509-3.026-1.282-1.282-2.29-2.778-3.026-4.488-0.734-1.709-1.101-3.54-1.101-5.49v-30.855c0-1.95 0.367-3.781 1.101-5.49 0.736-1.71 1.744-3.206 3.026-4.488s2.785-2.291 4.509-3.025c1.723-0.735 3.56-1.103 5.51-1.103h4.087c1.949 0 3.78 0.368 5.49 1.103 1.709 0.734 3.205 1.743 4.489 3.025 1.282 1.282 2.29 2.778 3.024 4.488 0.735 1.709 1.103 3.54 1.103 5.49v2.284l-5.17 0.842v-3.126c0-1.282-0.241-2.478-0.72-3.587-0.482-1.109-1.137-2.083-1.965-2.924-0.829-0.843-1.797-1.503-2.904-1.985-1.109-0.48-2.305-0.721-3.588-0.721h-3.606c-1.282 0-2.478 0.241-3.587 0.721-1.108 0.482-2.084 1.142-2.924 1.985-0.842 0.841-1.503 1.815-1.984 2.924-0.482 1.109-0.722 2.305-0.722 3.587v30.855c0 1.283 0.24 2.478 0.722 3.587 0.481 1.108 1.142 2.077 1.984 2.905 0.84 0.828 1.816 1.483 2.924 1.964 1.109 0.48 2.305 0.721 3.587 0.721h3.606c1.283 0 2.479-0.241 3.588-0.721 1.107-0.481 2.075-1.136 2.904-1.964 0.828-0.828 1.483-1.797 1.965-2.905 0.479-1.109 0.72-2.304 0.72-3.587v-3.125l5.17 0.801v2.324c0 1.95-0.368 3.781-1.103 5.49-0.734 1.71-1.742 3.206-3.024 4.488" fill="#fff"/></g><g id="g164" transform="translate(335.62,274.85)"><path id="path166" d="m0 0c-1.284 1.283-2.78 2.291-4.489 3.026-1.71 0.734-3.541 1.102-5.49 1.102h-4.087c-1.95 0-3.787-0.368-5.51-1.102-1.724-0.735-3.227-1.743-4.509-3.026-1.282-1.282-2.29-2.778-3.026-4.488-0.734-1.709-1.101-3.54-1.101-5.49v-30.855c0-1.95 0.367-3.781 1.101-5.49 0.736-1.71 1.744-3.206 3.026-4.488s2.785-2.291 4.509-3.025c1.723-0.735 3.56-1.103 5.51-1.103h4.087c1.949 0 3.78 0.368 5.49 1.103 1.709 0.734 3.205 1.743 4.489 3.025 1.282 1.282 2.29 2.778 3.024 4.488 0.735 1.709 1.103 3.54 1.103 5.49v2.284l-5.17 0.842v-3.126c0-1.282-0.241-2.478-0.72-3.587-0.482-1.109-1.137-2.083-1.965-2.924-0.829-0.843-1.797-1.503-2.904-1.985-1.109-0.48-2.305-0.721-3.588-0.721h-3.606c-1.282 0-2.478 0.241-3.587 0.721-1.108 0.482-2.084 1.142-2.924 1.985-0.842 0.841-1.503 1.815-1.984 2.924-0.482 1.109-0.722 2.305-0.722 3.587v30.855c0 1.283 0.24 2.478 0.722 3.587 0.481 1.108 1.142 2.077 1.984 2.905 0.84 0.828 1.816 1.483 2.924 1.964 1.109 0.48 2.305 0.721 3.587 0.721h3.606c1.283 0 2.479-0.241 3.588-0.721 1.107-0.481 2.075-1.136 2.904-1.964 0.828-0.828 1.483-1.797 1.965-2.905 0.479-1.109 0.72-2.304 0.72-3.587v-3.125l5.17 0.801v2.324c0 1.95-0.368 3.781-1.103 5.49-0.734 1.71-1.742 3.206-3.024 4.488z" stroke="#fff" stroke-miterlimit="10" stroke-width="4" fill="none"/></g></g></g></g></svg>
